<?xml version="1.0" encoding="utf-8" standalone="no"?>
<!DOCTYPE svg PUBLIC "-//W3C//DTD SVG 1.1//EN"
  "http://www.w3.org/Graphics/SVG/1.1/DTD/svg11.dtd">
<svg xmlns:xlink="http://www.w3.org/1999/xlink" width="566.969738pt" height="332.55pt" viewBox="0 0 566.969738 332.55" xmlns="http://www.w3.org/2000/svg" version="1.1">
 <metadata>
  <rdf:RDF xmlns:dc="http://purl.org/dc/elements/1.1/" xmlns:cc="http://creativecommons.org/ns#" xmlns:rdf="http://www.w3.org/1999/02/22-rdf-syntax-ns#">
   <cc:Work>
    <dc:type rdf:resource="http://purl.org/dc/dcmitype/StillImage"/>
    <dc:date>2026-06-05T16:18:12.089505</dc:date>
    <dc:format>image/svg+xml</dc:format>
    <dc:creator>
     <cc:Agent>
      <dc:title>Matplotlib v3.9.2, https://matplotlib.org/</dc:title>
     </cc:Agent>
    </dc:creator>
   </cc:Work>
  </rdf:RDF>
 </metadata>
 <defs>
  <style type="text/css">*{stroke-linejoin: round; stroke-linecap: butt}</style>
 </defs>
 <g id="figure_1">
  <g id="patch_1">
   <path d="M 0 332.55 
L 566.969738 332.55 
L 566.969738 -0 
L 0 -0 
z
" style="fill: #ffffff"/>
  </g>
  <g id="axes_1">
   <g id="patch_2">
    <path d="M 45.98784 163.925115 
L 259.071816 163.925115 
L 259.071816 67.194 
L 45.98784 67.194 
z
" style="fill: #ffffff"/>
   </g>
   <g id="patch_3">
    <path d="M 45.98784 163.925115 
L 109.913033 163.925115 
L 109.913033 67.194 
L 45.98784 67.194 
z
" clip-path="url(#pd90912776a)" style="fill: #f4e3d0"/>
   </g>
   <g id="patch_4">
    <path d="M 109.913033 163.925115 
L 144.25213 163.925115 
L 144.25213 67.194 
L 109.913033 67.194 
z
" clip-path="url(#pd90912776a)" style="fill: #dce8f4"/>
   </g>
   <g id="patch_5">
    <path d="M 144.25213 163.925115 
L 259.071816 163.925115 
L 259.071816 67.194 
L 144.25213 67.194 
z
" clip-path="url(#pd90912776a)" style="fill: #e1eee6"/>
   </g>
   <g id="matplotlib.axis_1">
    <g id="xtick_1">
     <g id="line2d_1">
      <defs>
       <path id="m45da7fd049" d="M 0 0 
L 0 3.5 
" style="stroke: #000000; stroke-width: 0.7"/>
      </defs>
      <g>
       <use xlink:href="#m45da7fd049" x="45.98784" y="163.925115" style="stroke: #000000; stroke-width: 0.7"/>
      </g>
     </g>
     <g id="text_1">
      <text style="font: 7px 'Arial', 'Helvetica', 'DejaVu Sans', sans-serif; text-anchor: middle" x="45.98784" y="175.935584" transform="rotate(-0 45.98784 175.935584)">0</text>
     </g>
    </g>
    <g id="xtick_2">
     <g id="line2d_2">
      <g>
       <use xlink:href="#m45da7fd049" x="88.604635" y="163.925115" style="stroke: #000000; stroke-width: 0.7"/>
      </g>
     </g>
     <g id="text_2">
      <text style="font: 7px 'Arial', 'Helvetica', 'DejaVu Sans', sans-serif; text-anchor: middle" x="88.604635" y="175.935584" transform="rotate(-0 88.604635 175.935584)">2</text>
     </g>
    </g>
    <g id="xtick_3">
     <g id="line2d_3">
      <g>
       <use xlink:href="#m45da7fd049" x="131.22143" y="163.925115" style="stroke: #000000; stroke-width: 0.7"/>
      </g>
     </g>
     <g id="text_3">
      <text style="font: 7px 'Arial', 'Helvetica', 'DejaVu Sans', sans-serif; text-anchor: middle" x="131.22143" y="175.935584" transform="rotate(-0 131.22143 175.935584)">4</text>
     </g>
    </g>
    <g id="xtick_4">
     <g id="line2d_4">
      <g>
       <use xlink:href="#m45da7fd049" x="173.838225" y="163.925115" style="stroke: #000000; stroke-width: 0.7"/>
      </g>
     </g>
     <g id="text_4">
      <text style="font: 7px 'Arial', 'Helvetica', 'DejaVu Sans', sans-serif; text-anchor: middle" x="173.838225" y="175.935584" transform="rotate(-0 173.838225 175.935584)">6</text>
     </g>
    </g>
    <g id="xtick_5">
     <g id="line2d_5">
      <g>
       <use xlink:href="#m45da7fd049" x="216.455021" y="163.925115" style="stroke: #000000; stroke-width: 0.7"/>
      </g>
     </g>
     <g id="text_5">
      <text style="font: 7px 'Arial', 'Helvetica', 'DejaVu Sans', sans-serif; text-anchor: middle" x="216.455021" y="175.935584" transform="rotate(-0 216.455021 175.935584)">8</text>
     </g>
    </g>
    <g id="xtick_6">
     <g id="line2d_6">
      <g>
       <use xlink:href="#m45da7fd049" x="259.071816" y="163.925115" style="stroke: #000000; stroke-width: 0.7"/>
      </g>
     </g>
     <g id="text_6">
      <text style="font: 7px 'Arial', 'Helvetica', 'DejaVu Sans', sans-serif; text-anchor: middle" x="259.071816" y="175.935584" transform="rotate(-0 259.071816 175.935584)">10</text>
     </g>
    </g>
    <g id="text_7">
     <text style="font: 7px 'Arial', 'Helvetica', 'DejaVu Sans', sans-serif; text-anchor: middle" x="152.529828" y="186.422615" transform="rotate(-0 152.529828 186.422615)">Elapsed time since SMDE start, t (h)</text>
    </g>
   </g>
   <g id="matplotlib.axis_2">
    <g id="ytick_1">
     <g id="line2d_7">
      <defs>
       <path id="m0a321fda6d" d="M 0 0 
L -3.5 0 
" style="stroke: #000000; stroke-width: 0.7"/>
      </defs>
      <g>
       <use xlink:href="#m0a321fda6d" x="45.98784" y="138.73166" style="stroke: #000000; stroke-width: 0.7"/>
      </g>
     </g>
     <g id="text_8">
      <text style="font: 7px 'Arial', 'Helvetica', 'DejaVu Sans', sans-serif; text-anchor: end" x="38.98784" y="141.236894" transform="rotate(-0 38.98784 141.236894)">6</text>
     </g>
    </g>
    <g id="ytick_2">
     <g id="line2d_8">
      <g>
       <use xlink:href="#m0a321fda6d" x="45.98784" y="110.950044" style="stroke: #000000; stroke-width: 0.7"/>
      </g>
     </g>
     <g id="text_9">
      <text style="font: 7px 'Arial', 'Helvetica', 'DejaVu Sans', sans-serif; text-anchor: end" x="38.98784" y="113.455279" transform="rotate(-0 38.98784 113.455279)">8</text>
     </g>
    </g>
    <g id="ytick_3">
     <g id="line2d_9">
      <g>
       <use xlink:href="#m0a321fda6d" x="45.98784" y="83.168429" style="stroke: #000000; stroke-width: 0.7"/>
      </g>
     </g>
     <g id="text_10">
      <text style="font: 7px 'Arial', 'Helvetica', 'DejaVu Sans', sans-serif; text-anchor: end" x="38.98784" y="85.673663" transform="rotate(-0 38.98784 85.673663)">10</text>
     </g>
    </g>
    <g id="text_11">
     <text style="font: 7px 'Arial', 'Helvetica', 'DejaVu Sans', sans-serif; text-anchor: middle" x="25.729246" y="115.559558" transform="rotate(-90 25.729246 115.559558)">Soil water amount, S(t)</text>
    </g>
   </g>
   <g id="line2d_10">
    <path d="M 45.98784 83.168429 
L 50.2602 87.734297 
L 54.532561 91.990097 
L 59.338966 96.445249 
L 64.145372 100.584115 
L 68.951777 104.438685 
L 74.292228 108.42136 
L 79.632678 112.119101 
L 84.973129 115.559461 
L 90.847624 119.07478 
L 96.72212 122.334456 
L 103.130661 125.626324 
L 109.539201 128.667995 
L 116.481787 131.707084 
L 123.424373 134.50428 
L 130.901003 137.271198 
L 138.377634 139.80694 
L 146.38831 142.291192 
L 154.933031 144.700985 
L 164.011796 147.016648 
L 173.090562 149.105562 
L 182.703373 151.095671 
L 192.850229 152.975062 
L 204.065175 154.81742 
L 215.814166 156.514239 
L 228.097203 158.06476 
L 241.448329 159.524996 
L 255.867545 160.875324 
L 259.071816 161.146954 
L 259.071816 161.146954 
" clip-path="url(#pd90912776a)" style="fill: none; stroke: #303030; stroke-width: 2.1; stroke-linecap: square"/>
   </g>
   <g id="line2d_11">
    <path d="M 109.913033 163.925115 
L 109.913033 67.194 
" clip-path="url(#pd90912776a)" style="fill: none; stroke-dasharray: 4.44,1.92; stroke-dashoffset: 0; stroke: #c78d4b; stroke-width: 1.2"/>
   </g>
   <g id="line2d_12">
    <path d="M 45.98784 141.652322 
L 259.071816 141.652322 
" clip-path="url(#pd90912776a)" style="fill: none; stroke-dasharray: 1,1.65; stroke-dashoffset: 0; stroke: #6fa38a"/>
   </g>
   <g id="patch_6">
    <path d="M 45.98784 163.925115 
L 45.98784 67.194 
" style="fill: none; stroke: #000000; stroke-width: 0.75; stroke-linejoin: miter; stroke-linecap: square"/>
   </g>
   <g id="patch_7">
    <path d="M 45.98784 163.925115 
L 259.071816 163.925115 
" style="fill: none; stroke: #000000; stroke-width: 0.75; stroke-linejoin: miter; stroke-linecap: square"/>
   </g>
   <g id="PathCollection_1">
    <defs>
     <path id="mf59109ae57" d="M 0 2 
C 0.530406 2 1.03916 1.789267 1.414214 1.414214 
C 1.789267 1.03916 2 0.530406 2 0 
C 2 -0.530406 1.789267 -1.03916 1.414214 -1.414214 
C 1.03916 -1.789267 0.530406 -2 0 -2 
C -0.530406 -2 -1.03916 -1.789267 -1.414214 -1.414214 
C -1.789267 -1.03916 -2 -0.530406 -2 0 
C -2 0.530406 -1.789267 1.03916 -1.414214 1.414214 
C -1.03916 1.789267 -0.530406 2 0 2 
z
" style="stroke: #303030"/>
    </defs>
    <g clip-path="url(#pd90912776a)">
     <use xlink:href="#mf59109ae57" x="45.98784" y="83.168429" style="fill: #303030; stroke: #303030"/>
     <use xlink:href="#mf59109ae57" x="109.913033" y="128.838035" style="fill: #303030; stroke: #303030"/>
     <use xlink:href="#mf59109ae57" x="144.25213" y="141.652322" style="fill: #303030; stroke: #303030"/>
     <use xlink:href="#mf59109ae57" x="259.071816" y="161.146954" style="fill: #303030; stroke: #303030"/>
    </g>
   </g>
   <g id="text_12">
    <text style="fill: #c78d4b; font: 700 7.2px 'Arial', 'Helvetica', 'DejaVu Sans', sans-serif; text-anchor: middle" x="77.950436" y="74.199974" transform="rotate(-0 77.950436 74.199974)">0-3 h</text>
   </g>
   <g id="text_13">
    <!-- post-3 h, $x_s\geq0.25$ -->
    <g style="fill: #355c7d" transform="translate(95.294581 74.313599)">
     <text>
      <tspan style="font: 700 7.2px 'Arial'" x="0 4.390411 8.780823 12.778168 15.171661 17.565155 21.5625 23.559418 27.949829 29.946747" y="-0.671875">post-3 h, </tspan>
      <tspan style="font: oblique 7.2px 'DejaVu Sans'" x="31.943665" y="-0.671875">x</tspan>
      <tspan style="font: oblique 5.04px 'DejaVu Sans'" x="36.197205" y="0.5093750000000004">s</tspan>
      <tspan style="font: 7.2px 'DejaVu Sans'" x="40.41564 47.838278 52.411185 54.320883 58.89379" y="-0.671875">≥0.25</tspan>
     </text>
    </g>
   </g>
   <g id="text_14">
    <!-- post-3 h, $x_s&lt;0.25$ -->
    <g style="fill: #6fa38a" transform="translate(169.873973 74.313599)">
     <text>
      <tspan style="font: 700 7.2px 'Arial'" x="0 4.390411 8.780823 12.778168 15.171661 17.565155 21.5625 23.559418 27.949829 29.946747" y="-0.671875">post-3 h, </tspan>
      <tspan style="font: oblique 7.2px 'DejaVu Sans'" x="31.943665" y="-0.671875">x</tspan>
      <tspan style="font: oblique 5.04px 'DejaVu Sans'" x="36.197205" y="0.5093750000000004">s</tspan>
      <tspan style="font: 7.2px 'DejaVu Sans'" x="40.41564 47.838278 52.411185 54.320883 58.89379" y="-0.671875">&lt;0.25</tspan>
     </text>
    </g>
   </g>
   <g id="text_15">
    <text style="fill: #c78d4b; font: 6.7px 'Arial', 'Helvetica', 'DejaVu Sans', sans-serif; text-anchor: start" x="110.978453" y="158.148432" transform="rotate(-0 110.978453 158.148432)">t = 3 h</text>
   </g>
   <g id="text_16">
    <!-- $x_s=0.25$ -->
    <g style="fill: #6fa38a" transform="translate(225.584556 138.891867)">
     <text>
      <tspan style="font: oblique 6.9px 'DejaVu Sans'" x="0" y="-0.890625">x</tspan>
      <tspan style="font: oblique 4.83px 'DejaVu Sans'" x="4.07785" y="0.23906250000000018">s</tspan>
      <tspan style="font: 6.9px 'DejaVu Sans'" x="8.121577 15.237627 19.621645 21.436967 25.820985" y="-0.890625">=0.25</tspan>
     </text>
    </g>
   </g>
   <g id="text_17">
    <text style="fill: #303030; font: 700 9px 'Arial', 'Helvetica', 'DejaVu Sans', sans-serif; text-anchor: start" x="28.941122" y="66.864853" transform="rotate(-0 28.941122 66.864853)">a</text>
   </g>
   <g id="text_18">
    <text style="font: 8px 'Arial', 'Helvetica', 'DejaVu Sans', sans-serif; text-anchor: start" x="45.98784" y="59.194" transform="rotate(-0 45.98784 59.194)">SMDE segmentation used for CSR</text>
   </g>
  </g>
  <g id="axes_2">
   <g id="patch_8">
    <path d="M 325.947402 163.925115 
L 530.83584 163.925115 
L 530.83584 67.194 
L 325.947402 67.194 
z
" style="fill: #ffffff"/>
   </g>
   <g id="patch_9">
    <path d="M 325.947402 163.925115 
L 412.000546 163.925115 
L 412.000546 67.194 
L 325.947402 67.194 
z
" clip-path="url(#pf76ea87b73)" style="fill: #e1eee6"/>
   </g>
   <g id="patch_10">
    <path d="M 412.000546 163.925115 
L 481.662615 163.925115 
L 481.662615 67.194 
L 412.000546 67.194 
z
" clip-path="url(#pf76ea87b73)" style="fill: #dce8f4"/>
   </g>
   <g id="patch_11">
    <path d="M 481.662615 163.925115 
L 530.83584 163.925115 
L 530.83584 67.194 
L 481.662615 67.194 
z
" clip-path="url(#pf76ea87b73)" style="fill: #f4e3d0"/>
   </g>
   <g id="PolyCollection_1">
    <defs>
     <path id="m90e38f5077" d="M 325.947402 -177.51369 
L 325.947402 -172.284981 
L 326.460907 -172.293389 
L 326.974412 -172.307953 
L 327.487916 -172.326337 
L 328.001421 -172.347743 
L 328.514926 -172.37172 
L 329.028431 -172.397968 
L 329.541936 -172.426267 
L 330.055441 -172.456451 
L 330.568946 -172.488385 
L 331.08245 -172.521959 
L 331.595955 -172.55708 
L 332.10946 -172.593669 
L 332.622965 -172.631658 
L 333.13647 -172.670986 
L 333.649975 -172.7116 
L 334.16348 -172.753451 
L 334.676984 -172.796496 
L 335.190489 -172.840697 
L 335.703994 -172.886017 
L 336.217499 -172.932423 
L 336.731004 -172.979886 
L 337.244509 -173.028377 
L 337.758014 -173.077871 
L 338.271518 -173.128342 
L 338.785023 -173.17977 
L 339.298528 -173.232131 
L 339.812033 -173.285407 
L 340.325538 -173.339578 
L 340.839043 -173.394627 
L 341.352548 -173.450537 
L 341.866052 -173.507292 
L 342.379557 -173.564878 
L 342.893062 -173.623278 
L 343.406567 -173.682481 
L 343.920072 -173.742473 
L 344.433577 -173.803241 
L 344.947082 -173.864773 
L 345.460586 -173.927058 
L 345.974091 -173.990086 
L 346.487596 -174.053845 
L 347.001101 -174.118325 
L 347.514606 -174.183517 
L 348.028111 -174.249411 
L 348.541616 -174.315999 
L 349.05512 -174.383271 
L 349.568625 -174.451219 
L 350.08213 -174.519836 
L 350.595635 -174.589112 
L 351.10914 -174.659041 
L 351.622645 -174.729615 
L 352.13615 -174.800828 
L 352.649654 -174.872671 
L 353.163159 -174.945139 
L 353.676664 -175.018225 
L 354.190169 -175.091922 
L 354.703674 -175.166225 
L 355.217179 -175.241127 
L 355.730684 -175.316623 
L 356.244188 -175.392708 
L 356.757693 -175.469374 
L 357.271198 -175.546618 
L 357.784703 -175.624434 
L 358.298208 -175.702817 
L 358.811713 -175.781761 
L 359.325218 -175.861263 
L 359.838722 -175.941317 
L 360.352227 -176.021919 
L 360.865732 -176.103064 
L 361.379237 -176.184747 
L 361.892742 -176.266965 
L 362.406247 -176.349714 
L 362.919752 -176.432988 
L 363.433256 -176.516785 
L 363.946761 -176.6011 
L 364.460266 -176.685929 
L 364.973771 -176.771268 
L 365.487276 -176.857115 
L 366.000781 -176.943464 
L 366.514286 -177.030314 
L 367.02779 -177.117659 
L 367.541295 -177.205497 
L 368.0548 -177.293825 
L 368.568305 -177.382638 
L 369.08181 -177.471934 
L 369.595315 -177.56171 
L 370.10882 -177.651963 
L 370.622324 -177.742689 
L 371.135829 -177.833886 
L 371.649334 -177.92555 
L 372.162839 -178.017678 
L 372.676344 -178.110269 
L 373.189849 -178.203319 
L 373.703354 -178.296824 
L 374.216858 -178.390784 
L 374.730363 -178.485194 
L 375.243868 -178.580053 
L 375.757373 -178.675357 
L 376.270878 -178.771104 
L 376.784383 -178.867292 
L 377.297888 -178.963919 
L 377.811392 -179.060981 
L 378.324897 -179.158476 
L 378.838402 -179.256403 
L 379.351907 -179.354758 
L 379.865412 -179.45354 
L 380.378917 -179.552746 
L 380.892422 -179.652374 
L 381.405926 -179.752422 
L 381.919431 -179.852888 
L 382.432936 -179.95377 
L 382.946441 -180.055065 
L 383.459946 -180.156771 
L 383.973451 -180.258887 
L 384.486956 -180.361411 
L 385.00046 -180.46434 
L 385.513965 -180.567672 
L 386.02747 -180.671406 
L 386.540975 -180.77554 
L 387.05448 -180.880072 
L 387.567985 -180.985 
L 388.08149 -181.090322 
L 388.594994 -181.196036 
L 389.108499 -181.302141 
L 389.622004 -181.408635 
L 390.135509 -181.515517 
L 390.649014 -181.622783 
L 391.162519 -181.730434 
L 391.676024 -181.838466 
L 392.189528 -181.946879 
L 392.703033 -182.055671 
L 393.216538 -182.16484 
L 393.730043 -182.274385 
L 394.243548 -182.384304 
L 394.757053 -182.494595 
L 395.270558 -182.605258 
L 395.784062 -182.71629 
L 396.297567 -182.82769 
L 396.811072 -182.939456 
L 397.324577 -183.051587 
L 397.838082 -183.164083 
L 398.351587 -183.27694 
L 398.865092 -183.390158 
L 399.378596 -183.503735 
L 399.892101 -183.617671 
L 400.405606 -183.731963 
L 400.919111 -183.84661 
L 401.432616 -183.961611 
L 401.946121 -184.076965 
L 402.459626 -184.19267 
L 402.97313 -184.308725 
L 403.486635 -184.425128 
L 404.00014 -184.541879 
L 404.513645 -184.658976 
L 405.02715 -184.776419 
L 405.540655 -184.894204 
L 406.05416 -185.012333 
L 406.567664 -185.130802 
L 407.081169 -185.249612 
L 407.594674 -185.36876 
L 408.108179 -185.488246 
L 408.621684 -185.608069 
L 409.135189 -185.728227 
L 409.648694 -185.848719 
L 410.162198 -185.969545 
L 410.675703 -186.090702 
L 411.189208 -186.21219 
L 411.702713 -186.334008 
L 412.216218 -186.456155 
L 412.729723 -186.57863 
L 413.243228 -186.70143 
L 413.756732 -186.824557 
L 414.270237 -186.948008 
L 414.783742 -187.071782 
L 415.297247 -187.195879 
L 415.810752 -187.320297 
L 416.324257 -187.445035 
L 416.837762 -187.570093 
L 417.351266 -187.695469 
L 417.864771 -187.821162 
L 418.378276 -187.947172 
L 418.891781 -188.073497 
L 419.405286 -188.200137 
L 419.918791 -188.32709 
L 420.432296 -188.454355 
L 420.9458 -188.581933 
L 421.459305 -188.709821 
L 421.97281 -188.838019 
L 422.486315 -188.966525 
L 422.99982 -189.09534 
L 423.513325 -189.224462 
L 424.02683 -189.35389 
L 424.540335 -189.483623 
L 425.053839 -189.613661 
L 425.567344 -189.744002 
L 426.080849 -189.874646 
L 426.594354 -190.005591 
L 427.107859 -190.136838 
L 427.621364 -190.268385 
L 428.134869 -190.400231 
L 428.648373 -190.532376 
L 429.161878 -190.664818 
L 429.675383 -190.797557 
L 430.188888 -190.930592 
L 430.702393 -191.063923 
L 431.215898 -191.197548 
L 431.729403 -191.331466 
L 432.242907 -191.465678 
L 432.756412 -191.600181 
L 433.269917 -191.734976 
L 433.783422 -191.870061 
L 434.296927 -192.005436 
L 434.810432 -192.1411 
L 435.323937 -192.277053 
L 435.837441 -192.413293 
L 436.350946 -192.549819 
L 436.864451 -192.686632 
L 437.377956 -192.82373 
L 437.891461 -192.961113 
L 438.404966 -193.098779 
L 438.918471 -193.236729 
L 439.431975 -193.374961 
L 439.94548 -193.513475 
L 440.458985 -193.65227 
L 440.97249 -193.791345 
L 441.485995 -193.930701 
L 441.9995 -194.070335 
L 442.513005 -194.210247 
L 443.026509 -194.350437 
L 443.540014 -194.490904 
L 444.053519 -194.631647 
L 444.567024 -194.772666 
L 445.080529 -194.91396 
L 445.594034 -195.055528 
L 446.107539 -195.19737 
L 446.621043 -195.339485 
L 447.134548 -195.481872 
L 447.648053 -195.624531 
L 448.161558 -195.767461 
L 448.675063 -195.910662 
L 449.188568 -196.054132 
L 449.702073 -196.197872 
L 450.215577 -196.341881 
L 450.729082 -196.486157 
L 451.242587 -196.630701 
L 451.756092 -196.775512 
L 452.269597 -196.920589 
L 452.783102 -197.065931 
L 453.296607 -197.211539 
L 453.810111 -197.357411 
L 454.323616 -197.503547 
L 454.837121 -197.649946 
L 455.350626 -197.796608 
L 455.864131 -197.943532 
L 456.377636 -198.090718 
L 456.891141 -198.238164 
L 457.404645 -198.385871 
L 457.91815 -198.533838 
L 458.431655 -198.682065 
L 458.94516 -198.83055 
L 459.458665 -198.979293 
L 459.97217 -199.128294 
L 460.485675 -199.277552 
L 460.999179 -199.427066 
L 461.512684 -199.576837 
L 462.026189 -199.726863 
L 462.539694 -199.877144 
L 463.053199 -200.02768 
L 463.566704 -200.178469 
L 464.080209 -200.329512 
L 464.593713 -200.480808 
L 465.107218 -200.632356 
L 465.620723 -200.784156 
L 466.134228 -200.936207 
L 466.647733 -201.088509 
L 467.161238 -201.241062 
L 467.674743 -201.393864 
L 468.188247 -201.546916 
L 468.701752 -201.700216 
L 469.215257 -201.853765 
L 469.728762 -202.007562 
L 470.242267 -202.161606 
L 470.755772 -202.315897 
L 471.269277 -202.470435 
L 471.782781 -202.625218 
L 472.296286 -202.780247 
L 472.809791 -202.93552 
L 473.323296 -203.091039 
L 473.836801 -203.246801 
L 474.350306 -203.402807 
L 474.863811 -203.559056 
L 475.377315 -203.715547 
L 475.89082 -203.872281 
L 476.404325 -204.029257 
L 476.91783 -204.186474 
L 477.431335 -204.343931 
L 477.94484 -204.501629 
L 478.458345 -204.659567 
L 478.971849 -204.817745 
L 479.485354 -204.976161 
L 479.998859 -205.134816 
L 480.512364 -205.293709 
L 481.025869 -205.45284 
L 481.539374 -205.612208 
L 482.052879 -205.771814 
L 482.566383 -205.931655 
L 483.079888 -206.091733 
L 483.593393 -206.252046 
L 484.106898 -206.412594 
L 484.620403 -206.573377 
L 485.133908 -206.734394 
L 485.647413 -206.895646 
L 486.160917 -207.05713 
L 486.674422 -207.218848 
L 487.187927 -207.380799 
L 487.701432 -207.542981 
L 488.214937 -207.705396 
L 488.728442 -207.868042 
L 489.241947 -208.030919 
L 489.755451 -208.194027 
L 490.268956 -208.357365 
L 490.782461 -208.520933 
L 491.295966 -208.68473 
L 491.809471 -208.848756 
L 492.322976 -209.013011 
L 492.836481 -209.177495 
L 493.349985 -209.342206 
L 493.86349 -209.507145 
L 494.376995 -209.672311 
L 494.8905 -209.837703 
L 495.404005 -210.003322 
L 495.91751 -210.169167 
L 496.431015 -210.335238 
L 496.944519 -210.501534 
L 497.458024 -210.668055 
L 497.971529 -210.8348 
L 498.485034 -211.00177 
L 498.998539 -211.168963 
L 499.512044 -211.336379 
L 500.025549 -211.504019 
L 500.539053 -211.671881 
L 501.052558 -211.839966 
L 501.566063 -212.008273 
L 502.079568 -212.176801 
L 502.593073 -212.34555 
L 503.106578 -212.514521 
L 503.620083 -212.683711 
L 504.133587 -212.853123 
L 504.647092 -213.022753 
L 505.160597 -213.192604 
L 505.674102 -213.362673 
L 506.187607 -213.532962 
L 506.701112 -213.703469 
L 507.214617 -213.874193 
L 507.728121 -214.045136 
L 508.241626 -214.216296 
L 508.755131 -214.387674 
L 509.268636 -214.559268 
L 509.782141 -214.731078 
L 510.295646 -214.903105 
L 510.809151 -215.075347 
L 511.322655 -215.247805 
L 511.83616 -215.420477 
L 512.349665 -215.593365 
L 512.86317 -215.766467 
L 513.376675 -215.939783 
L 513.89018 -216.113313 
L 514.403685 -216.287057 
L 514.917189 -216.461014 
L 515.430694 -216.635183 
L 515.944199 -216.809565 
L 516.457704 -216.98416 
L 516.971209 -217.158966 
L 517.484714 -217.333984 
L 517.998219 -217.509213 
L 518.511723 -217.684653 
L 519.025228 -217.860303 
L 519.538733 -218.036164 
L 520.052238 -218.212235 
L 520.565743 -218.388516 
L 521.079248 -218.565006 
L 521.592753 -218.741706 
L 522.106257 -218.918614 
L 522.619762 -219.095731 
L 523.133267 -219.273056 
L 523.646772 -219.450588 
L 524.160277 -219.628329 
L 524.673782 -219.806277 
L 525.187287 -219.984431 
L 525.700791 -220.162793 
L 526.214296 -220.341361 
L 526.727801 -220.520135 
L 527.241306 -220.699115 
L 527.754811 -220.878301 
L 528.268316 -221.057692 
L 528.781821 -221.237288 
L 529.295325 -221.417088 
L 529.80883 -221.597094 
L 530.322335 -221.777303 
L 530.83584 -221.957716 
L 530.83584 -227.186425 
L 530.83584 -227.186425 
L 530.322335 -227.006012 
L 529.80883 -226.825802 
L 529.295325 -226.645797 
L 528.781821 -226.465997 
L 528.268316 -226.286401 
L 527.754811 -226.10701 
L 527.241306 -225.927824 
L 526.727801 -225.748844 
L 526.214296 -225.57007 
L 525.700791 -225.391502 
L 525.187287 -225.21314 
L 524.673782 -225.034986 
L 524.160277 -224.857038 
L 523.646772 -224.679297 
L 523.133267 -224.501764 
L 522.619762 -224.32444 
L 522.106257 -224.147323 
L 521.592753 -223.970415 
L 521.079248 -223.793715 
L 520.565743 -223.617225 
L 520.052238 -223.440944 
L 519.538733 -223.264873 
L 519.025228 -223.089012 
L 518.511723 -222.913362 
L 517.998219 -222.737922 
L 517.484714 -222.562693 
L 516.971209 -222.387675 
L 516.457704 -222.212869 
L 515.944199 -222.038274 
L 515.430694 -221.863892 
L 514.917189 -221.689723 
L 514.403685 -221.515766 
L 513.89018 -221.342022 
L 513.376675 -221.168492 
L 512.86317 -220.995176 
L 512.349665 -220.822074 
L 511.83616 -220.649186 
L 511.322655 -220.476514 
L 510.809151 -220.304056 
L 510.295646 -220.131813 
L 509.782141 -219.959787 
L 509.268636 -219.787977 
L 508.755131 -219.616382 
L 508.241626 -219.445005 
L 507.728121 -219.273845 
L 507.214617 -219.102902 
L 506.701112 -218.932177 
L 506.187607 -218.761671 
L 505.674102 -218.591382 
L 505.160597 -218.421313 
L 504.647092 -218.251462 
L 504.133587 -218.081831 
L 503.620083 -217.91242 
L 503.106578 -217.743229 
L 502.593073 -217.574259 
L 502.079568 -217.40551 
L 501.566063 -217.236981 
L 501.052558 -217.068675 
L 500.539053 -216.90059 
L 500.025549 -216.732728 
L 499.512044 -216.565088 
L 498.998539 -216.397672 
L 498.485034 -216.230478 
L 497.971529 -216.063509 
L 497.458024 -215.896764 
L 496.944519 -215.730243 
L 496.431015 -215.563947 
L 495.91751 -215.397876 
L 495.404005 -215.232031 
L 494.8905 -215.066412 
L 494.376995 -214.90102 
L 493.86349 -214.735854 
L 493.349985 -214.570915 
L 492.836481 -214.406204 
L 492.322976 -214.24172 
L 491.809471 -214.077465 
L 491.295966 -213.913439 
L 490.782461 -213.749642 
L 490.268956 -213.586074 
L 489.755451 -213.422736 
L 489.241947 -213.259628 
L 488.728442 -213.096751 
L 488.214937 -212.934105 
L 487.701432 -212.77169 
L 487.187927 -212.609507 
L 486.674422 -212.447557 
L 486.160917 -212.285839 
L 485.647413 -212.124354 
L 485.133908 -211.963103 
L 484.620403 -211.802086 
L 484.106898 -211.641303 
L 483.593393 -211.480755 
L 483.079888 -211.320442 
L 482.566383 -211.160364 
L 482.052879 -211.000522 
L 481.539374 -210.840917 
L 481.025869 -210.681549 
L 480.512364 -210.522418 
L 479.998859 -210.363525 
L 479.485354 -210.20487 
L 478.971849 -210.046454 
L 478.458345 -209.888276 
L 477.94484 -209.730338 
L 477.431335 -209.57264 
L 476.91783 -209.415183 
L 476.404325 -209.257966 
L 475.89082 -209.10099 
L 475.377315 -208.944256 
L 474.863811 -208.787765 
L 474.350306 -208.631516 
L 473.836801 -208.47551 
L 473.323296 -208.319748 
L 472.809791 -208.164229 
L 472.296286 -208.008956 
L 471.782781 -207.853927 
L 471.269277 -207.699143 
L 470.755772 -207.544606 
L 470.242267 -207.390315 
L 469.728762 -207.236271 
L 469.215257 -207.082474 
L 468.701752 -206.928925 
L 468.188247 -206.775625 
L 467.674743 -206.622573 
L 467.161238 -206.469771 
L 466.647733 -206.317218 
L 466.134228 -206.164916 
L 465.620723 -206.012865 
L 465.107218 -205.861065 
L 464.593713 -205.709517 
L 464.080209 -205.558221 
L 463.566704 -205.407178 
L 463.053199 -205.256389 
L 462.539694 -205.105853 
L 462.026189 -204.955572 
L 461.512684 -204.805546 
L 460.999179 -204.655775 
L 460.485675 -204.506261 
L 459.97217 -204.357003 
L 459.458665 -204.208002 
L 458.94516 -204.059259 
L 458.431655 -203.910774 
L 457.91815 -203.762547 
L 457.404645 -203.61458 
L 456.891141 -203.466873 
L 456.377636 -203.319427 
L 455.864131 -203.172241 
L 455.350626 -203.025317 
L 454.837121 -202.878655 
L 454.323616 -202.732256 
L 453.810111 -202.58612 
L 453.296607 -202.440248 
L 452.783102 -202.29464 
L 452.269597 -202.149298 
L 451.756092 -202.004221 
L 451.242587 -201.85941 
L 450.729082 -201.714866 
L 450.215577 -201.57059 
L 449.702073 -201.426581 
L 449.188568 -201.282841 
L 448.675063 -201.139371 
L 448.161558 -200.99617 
L 447.648053 -200.85324 
L 447.134548 -200.710581 
L 446.621043 -200.568194 
L 446.107539 -200.426079 
L 445.594034 -200.284237 
L 445.080529 -200.142669 
L 444.567024 -200.001375 
L 444.053519 -199.860356 
L 443.540014 -199.719613 
L 443.026509 -199.579146 
L 442.513005 -199.438956 
L 441.9995 -199.299043 
L 441.485995 -199.159409 
L 440.97249 -199.020054 
L 440.458985 -198.880979 
L 439.94548 -198.742184 
L 439.431975 -198.60367 
L 438.918471 -198.465438 
L 438.404966 -198.327488 
L 437.891461 -198.189822 
L 437.377956 -198.052439 
L 436.864451 -197.915341 
L 436.350946 -197.778528 
L 435.837441 -197.642002 
L 435.323937 -197.505762 
L 434.810432 -197.369809 
L 434.296927 -197.234145 
L 433.783422 -197.09877 
L 433.269917 -196.963685 
L 432.756412 -196.82889 
L 432.242907 -196.694387 
L 431.729403 -196.560175 
L 431.215898 -196.426257 
L 430.702393 -196.292632 
L 430.188888 -196.159301 
L 429.675383 -196.026266 
L 429.161878 -195.893527 
L 428.648373 -195.761085 
L 428.134869 -195.62894 
L 427.621364 -195.497094 
L 427.107859 -195.365547 
L 426.594354 -195.2343 
L 426.080849 -195.103355 
L 425.567344 -194.972711 
L 425.053839 -194.84237 
L 424.540335 -194.712332 
L 424.02683 -194.582599 
L 423.513325 -194.453171 
L 422.99982 -194.324049 
L 422.486315 -194.195234 
L 421.97281 -194.066728 
L 421.459305 -193.93853 
L 420.9458 -193.810642 
L 420.432296 -193.683064 
L 419.918791 -193.555799 
L 419.405286 -193.428846 
L 418.891781 -193.302206 
L 418.378276 -193.175881 
L 417.864771 -193.049871 
L 417.351266 -192.924178 
L 416.837762 -192.798801 
L 416.324257 -192.673744 
L 415.810752 -192.549005 
L 415.297247 -192.424587 
L 414.783742 -192.300491 
L 414.270237 -192.176717 
L 413.756732 -192.053266 
L 413.243228 -191.930139 
L 412.729723 -191.807338 
L 412.216218 -191.684864 
L 411.702713 -191.562717 
L 411.189208 -191.440899 
L 410.675703 -191.319411 
L 410.162198 -191.198254 
L 409.648694 -191.077428 
L 409.135189 -190.956936 
L 408.621684 -190.836778 
L 408.108179 -190.716955 
L 407.594674 -190.597469 
L 407.081169 -190.478321 
L 406.567664 -190.359511 
L 406.05416 -190.241042 
L 405.540655 -190.122913 
L 405.02715 -190.005128 
L 404.513645 -189.887685 
L 404.00014 -189.770588 
L 403.486635 -189.653837 
L 402.97313 -189.537433 
L 402.459626 -189.421378 
L 401.946121 -189.305673 
L 401.432616 -189.19032 
L 400.919111 -189.075319 
L 400.405606 -188.960671 
L 399.892101 -188.846379 
L 399.378596 -188.732444 
L 398.865092 -188.618867 
L 398.351587 -188.505649 
L 397.838082 -188.392791 
L 397.324577 -188.280296 
L 396.811072 -188.168165 
L 396.297567 -188.056398 
L 395.784062 -187.944999 
L 395.270558 -187.833967 
L 394.757053 -187.723304 
L 394.243548 -187.613013 
L 393.730043 -187.503094 
L 393.216538 -187.393549 
L 392.703033 -187.28438 
L 392.189528 -187.175588 
L 391.676024 -187.067175 
L 391.162519 -186.959143 
L 390.649014 -186.851492 
L 390.135509 -186.744225 
L 389.622004 -186.637344 
L 389.108499 -186.53085 
L 388.594994 -186.424745 
L 388.08149 -186.319031 
L 387.567985 -186.213709 
L 387.05448 -186.108781 
L 386.540975 -186.004249 
L 386.02747 -185.900115 
L 385.513965 -185.796381 
L 385.00046 -185.693049 
L 384.486956 -185.59012 
L 383.973451 -185.487596 
L 383.459946 -185.38548 
L 382.946441 -185.283774 
L 382.432936 -185.182479 
L 381.919431 -185.081597 
L 381.405926 -184.981131 
L 380.892422 -184.881083 
L 380.378917 -184.781455 
L 379.865412 -184.682249 
L 379.351907 -184.583467 
L 378.838402 -184.485112 
L 378.324897 -184.387185 
L 377.811392 -184.28969 
L 377.297888 -184.192627 
L 376.784383 -184.096001 
L 376.270878 -183.999813 
L 375.757373 -183.904066 
L 375.243868 -183.808761 
L 374.730363 -183.713903 
L 374.216858 -183.619493 
L 373.703354 -183.525533 
L 373.189849 -183.432027 
L 372.676344 -183.338978 
L 372.162839 -183.246387 
L 371.649334 -183.154259 
L 371.135829 -183.062595 
L 370.622324 -182.971398 
L 370.10882 -182.880672 
L 369.595315 -182.790419 
L 369.08181 -182.700643 
L 368.568305 -182.611347 
L 368.0548 -182.522534 
L 367.541295 -182.434206 
L 367.02779 -182.346368 
L 366.514286 -182.259023 
L 366.000781 -182.172173 
L 365.487276 -182.085824 
L 364.973771 -181.999977 
L 364.460266 -181.914638 
L 363.946761 -181.829809 
L 363.433256 -181.745494 
L 362.919752 -181.661697 
L 362.406247 -181.578423 
L 361.892742 -181.495674 
L 361.379237 -181.413456 
L 360.865732 -181.331772 
L 360.352227 -181.250628 
L 359.838722 -181.170026 
L 359.325218 -181.089972 
L 358.811713 -181.01047 
L 358.298208 -180.931526 
L 357.784703 -180.853143 
L 357.271198 -180.775327 
L 356.757693 -180.698083 
L 356.244188 -180.621417 
L 355.730684 -180.545332 
L 355.217179 -180.469836 
L 354.703674 -180.394934 
L 354.190169 -180.320631 
L 353.676664 -180.246934 
L 353.163159 -180.173848 
L 352.649654 -180.10138 
L 352.13615 -180.029536 
L 351.622645 -179.958324 
L 351.10914 -179.88775 
L 350.595635 -179.817821 
L 350.08213 -179.748545 
L 349.568625 -179.679928 
L 349.05512 -179.61198 
L 348.541616 -179.544708 
L 348.028111 -179.47812 
L 347.514606 -179.412226 
L 347.001101 -179.347034 
L 346.487596 -179.282554 
L 345.974091 -179.218795 
L 345.460586 -179.155767 
L 344.947082 -179.093482 
L 344.433577 -179.03195 
L 343.920072 -178.971182 
L 343.406567 -178.91119 
L 342.893062 -178.851987 
L 342.379557 -178.793587 
L 341.866052 -178.736001 
L 341.352548 -178.679246 
L 340.839043 -178.623336 
L 340.325538 -178.568287 
L 339.812033 -178.514116 
L 339.298528 -178.46084 
L 338.785023 -178.408479 
L 338.271518 -178.357051 
L 337.758014 -178.30658 
L 337.244509 -178.257086 
L 336.731004 -178.208595 
L 336.217499 -178.161132 
L 335.703994 -178.114726 
L 335.190489 -178.069406 
L 334.676984 -178.025205 
L 334.16348 -177.98216 
L 333.649975 -177.940309 
L 333.13647 -177.899695 
L 332.622965 -177.860367 
L 332.10946 -177.822378 
L 331.595955 -177.785789 
L 331.08245 -177.750668 
L 330.568946 -177.717094 
L 330.055441 -177.68516 
L 329.541936 -177.654976 
L 329.028431 -177.626677 
L 328.514926 -177.600429 
L 328.001421 -177.576452 
L 327.487916 -177.555046 
L 326.974412 -177.536662 
L 326.460907 -177.522098 
L 325.947402 -177.51369 
z
"/>
    </defs>
    <g clip-path="url(#pf76ea87b73)">
     <use xlink:href="#m90e38f5077" x="0" y="332.55" style="fill: #6fa38a; fill-opacity: 0.08"/>
    </g>
   </g>
   <g id="PolyCollection_2">
    <defs>
     <path id="mf6eb8c85bb" d="M 325.947402 -198.951397 
L 325.947402 -190.585462 
L 326.460907 -190.585463 
L 326.974412 -190.585471 
L 327.487916 -190.585492 
L 328.001421 -190.585533 
L 328.514926 -190.585601 
L 329.028431 -190.585702 
L 329.541936 -190.585844 
L 330.055441 -190.586031 
L 330.568946 -190.586272 
L 331.08245 -190.586574 
L 331.595955 -190.586941 
L 332.10946 -190.587383 
L 332.622965 -190.587904 
L 333.13647 -190.588512 
L 333.649975 -190.589213 
L 334.16348 -190.590014 
L 334.676984 -190.590922 
L 335.190489 -190.591943 
L 335.703994 -190.593084 
L 336.217499 -190.594352 
L 336.731004 -190.595754 
L 337.244509 -190.597295 
L 337.758014 -190.598983 
L 338.271518 -190.600824 
L 338.785023 -190.602826 
L 339.298528 -190.604994 
L 339.812033 -190.607335 
L 340.325538 -190.609856 
L 340.839043 -190.612565 
L 341.352548 -190.615466 
L 341.866052 -190.618567 
L 342.379557 -190.621876 
L 342.893062 -190.625397 
L 343.406567 -190.629139 
L 343.920072 -190.633107 
L 344.433577 -190.637309 
L 344.947082 -190.64175 
L 345.460586 -190.646439 
L 345.974091 -190.65138 
L 346.487596 -190.656582 
L 347.001101 -190.66205 
L 347.514606 -190.667792 
L 348.028111 -190.673814 
L 348.541616 -190.680123 
L 349.05512 -190.686725 
L 349.568625 -190.693626 
L 350.08213 -190.700835 
L 350.595635 -190.708357 
L 351.10914 -190.716199 
L 351.622645 -190.724368 
L 352.13615 -190.73287 
L 352.649654 -190.741712 
L 353.163159 -190.750901 
L 353.676664 -190.760443 
L 354.190169 -190.770346 
L 354.703674 -190.780615 
L 355.217179 -190.791257 
L 355.730684 -190.802279 
L 356.244188 -190.813689 
L 356.757693 -190.825491 
L 357.271198 -190.837694 
L 357.784703 -190.850303 
L 358.298208 -190.863326 
L 358.811713 -190.876768 
L 359.325218 -190.890638 
L 359.838722 -190.904941 
L 360.352227 -190.919684 
L 360.865732 -190.934873 
L 361.379237 -190.950516 
L 361.892742 -190.966619 
L 362.406247 -190.983189 
L 362.919752 -191.000232 
L 363.433256 -191.017755 
L 363.946761 -191.035765 
L 364.460266 -191.054269 
L 364.973771 -191.073272 
L 365.487276 -191.092782 
L 366.000781 -191.112806 
L 366.514286 -191.133349 
L 367.02779 -191.154419 
L 367.541295 -191.176023 
L 368.0548 -191.198167 
L 368.568305 -191.220857 
L 369.08181 -191.244101 
L 369.595315 -191.267905 
L 370.10882 -191.292276 
L 370.622324 -191.31722 
L 371.135829 -191.342744 
L 371.649334 -191.368855 
L 372.162839 -191.395559 
L 372.676344 -191.422864 
L 373.189849 -191.450775 
L 373.703354 -191.4793 
L 374.216858 -191.508444 
L 374.730363 -191.538215 
L 375.243868 -191.56862 
L 375.757373 -191.599665 
L 376.270878 -191.631357 
L 376.784383 -191.663702 
L 377.297888 -191.696707 
L 377.811392 -191.730378 
L 378.324897 -191.764724 
L 378.838402 -191.799749 
L 379.351907 -191.835461 
L 379.865412 -191.871867 
L 380.378917 -191.908972 
L 380.892422 -191.946784 
L 381.405926 -191.98531 
L 381.919431 -192.024556 
L 382.432936 -192.064529 
L 382.946441 -192.105235 
L 383.459946 -192.146681 
L 383.973451 -192.188873 
L 384.486956 -192.23182 
L 385.00046 -192.275526 
L 385.513965 -192.319999 
L 386.02747 -192.365246 
L 386.540975 -192.411272 
L 387.05448 -192.458086 
L 387.567985 -192.505693 
L 388.08149 -192.554099 
L 388.594994 -192.603313 
L 389.108499 -192.65334 
L 389.622004 -192.704187 
L 390.135509 -192.755861 
L 390.649014 -192.808369 
L 391.162519 -192.861716 
L 391.676024 -192.915911 
L 392.189528 -192.970958 
L 392.703033 -193.026866 
L 393.216538 -193.083641 
L 393.730043 -193.141289 
L 394.243548 -193.199817 
L 394.757053 -193.259232 
L 395.270558 -193.31954 
L 395.784062 -193.380749 
L 396.297567 -193.442864 
L 396.811072 -193.505892 
L 397.324577 -193.569841 
L 397.838082 -193.634717 
L 398.351587 -193.700526 
L 398.865092 -193.767275 
L 399.378596 -193.834971 
L 399.892101 -193.90362 
L 400.405606 -193.97323 
L 400.919111 -194.043806 
L 401.432616 -194.115355 
L 401.946121 -194.187885 
L 402.459626 -194.261402 
L 402.97313 -194.335912 
L 403.486635 -194.411422 
L 404.00014 -194.487939 
L 404.513645 -194.565469 
L 405.02715 -194.64402 
L 405.540655 -194.723597 
L 406.05416 -194.804208 
L 406.567664 -194.885859 
L 407.081169 -194.968557 
L 407.594674 -195.052308 
L 408.108179 -195.137119 
L 408.621684 -195.222997 
L 409.135189 -195.309949 
L 409.648694 -195.39798 
L 410.162198 -195.487099 
L 410.675703 -195.577311 
L 411.189208 -195.668623 
L 411.702713 -195.761042 
L 412.216218 -195.854574 
L 412.729723 -195.949226 
L 413.243228 -196.045006 
L 413.756732 -196.141918 
L 414.270237 -196.239971 
L 414.783742 -196.339171 
L 415.297247 -196.439524 
L 415.810752 -196.541037 
L 416.324257 -196.643717 
L 416.837762 -196.747571 
L 417.351266 -196.852605 
L 417.864771 -196.958825 
L 418.378276 -197.066239 
L 418.891781 -197.174853 
L 419.405286 -197.284674 
L 419.918791 -197.395709 
L 420.432296 -197.507963 
L 420.9458 -197.621445 
L 421.459305 -197.736159 
L 421.97281 -197.852114 
L 422.486315 -197.969316 
L 422.99982 -198.087772 
L 423.513325 -198.207487 
L 424.02683 -198.328469 
L 424.540335 -198.450725 
L 425.053839 -198.574261 
L 425.567344 -198.699084 
L 426.080849 -198.8252 
L 426.594354 -198.952616 
L 427.107859 -199.08134 
L 427.621364 -199.211376 
L 428.134869 -199.342733 
L 428.648373 -199.475417 
L 429.161878 -199.609434 
L 429.675383 -199.744791 
L 430.188888 -199.881495 
L 430.702393 -200.019553 
L 431.215898 -200.158971 
L 431.729403 -200.299756 
L 432.242907 -200.441914 
L 432.756412 -200.585452 
L 433.269917 -200.730377 
L 433.783422 -200.876696 
L 434.296927 -201.024415 
L 434.810432 -201.17354 
L 435.323937 -201.324079 
L 435.837441 -201.476039 
L 436.350946 -201.629425 
L 436.864451 -201.784245 
L 437.377956 -201.940504 
L 437.891461 -202.098211 
L 438.404966 -202.257371 
L 438.918471 -202.417992 
L 439.431975 -202.580079 
L 439.94548 -202.74364 
L 440.458985 -202.908681 
L 440.97249 -203.075208 
L 441.485995 -203.24323 
L 441.9995 -203.412751 
L 442.513005 -203.583779 
L 443.026509 -203.756321 
L 443.540014 -203.930383 
L 444.053519 -204.105972 
L 444.567024 -204.283094 
L 445.080529 -204.461757 
L 445.594034 -204.641966 
L 446.107539 -204.823729 
L 446.621043 -205.007052 
L 447.134548 -205.191942 
L 447.648053 -205.378405 
L 448.161558 -205.566449 
L 448.675063 -205.75608 
L 449.188568 -205.947304 
L 449.702073 -206.140128 
L 450.215577 -206.334559 
L 450.729082 -206.530604 
L 451.242587 -206.728268 
L 451.756092 -206.92756 
L 452.269597 -207.128485 
L 452.783102 -207.331051 
L 453.296607 -207.535263 
L 453.810111 -207.741129 
L 454.323616 -207.948655 
L 454.837121 -208.157847 
L 455.350626 -208.368714 
L 455.864131 -208.58126 
L 456.377636 -208.795494 
L 456.891141 -209.011421 
L 457.404645 -209.229048 
L 457.91815 -209.448382 
L 458.431655 -209.66943 
L 458.94516 -209.892198 
L 459.458665 -210.116692 
L 459.97217 -210.34292 
L 460.485675 -210.570889 
L 460.999179 -210.800604 
L 461.512684 -211.032073 
L 462.026189 -211.265302 
L 462.539694 -211.500298 
L 463.053199 -211.737068 
L 463.566704 -211.975617 
L 464.080209 -212.215954 
L 464.593713 -212.458084 
L 465.107218 -212.702014 
L 465.620723 -212.947752 
L 466.134228 -213.195302 
L 466.647733 -213.444673 
L 467.161238 -213.695871 
L 467.674743 -213.948903 
L 468.188247 -214.203774 
L 468.701752 -214.460493 
L 469.215257 -214.719065 
L 469.728762 -214.979497 
L 470.242267 -215.241797 
L 470.755772 -215.505969 
L 471.269277 -215.772022 
L 471.782781 -216.039962 
L 472.296286 -216.309796 
L 472.809791 -216.581529 
L 473.323296 -216.85517 
L 473.836801 -217.130724 
L 474.350306 -217.408198 
L 474.863811 -217.6876 
L 475.377315 -217.968935 
L 475.89082 -218.25221 
L 476.404325 -218.537432 
L 476.91783 -218.824607 
L 477.431335 -219.113743 
L 477.94484 -219.404845 
L 478.458345 -219.697922 
L 478.971849 -219.992978 
L 479.485354 -220.290022 
L 479.998859 -220.589059 
L 480.512364 -220.890096 
L 481.025869 -221.19314 
L 481.539374 -221.498198 
L 482.052879 -221.805275 
L 482.566383 -222.11438 
L 483.079888 -222.425519 
L 483.593393 -222.738697 
L 484.106898 -223.053923 
L 484.620403 -223.371202 
L 485.133908 -223.690541 
L 485.647413 -224.011948 
L 486.160917 -224.335428 
L 486.674422 -224.660988 
L 487.187927 -224.988635 
L 487.701432 -225.318375 
L 488.214937 -225.650216 
L 488.728442 -225.984164 
L 489.241947 -226.320225 
L 489.755451 -226.658407 
L 490.268956 -226.998716 
L 490.782461 -227.341158 
L 491.295966 -227.68574 
L 491.809471 -228.03247 
L 492.322976 -228.381353 
L 492.836481 -228.732396 
L 493.349985 -229.085606 
L 493.86349 -229.44099 
L 494.376995 -229.798553 
L 494.8905 -230.158304 
L 495.404005 -230.520249 
L 495.91751 -230.884394 
L 496.431015 -231.250745 
L 496.944519 -231.619311 
L 497.458024 -231.990096 
L 497.971529 -232.363109 
L 498.485034 -232.738355 
L 498.998539 -233.115841 
L 499.512044 -233.495574 
L 500.025549 -233.877561 
L 500.539053 -234.261808 
L 501.052558 -234.648323 
L 501.566063 -235.03711 
L 502.079568 -235.428178 
L 502.593073 -235.821533 
L 503.106578 -236.217182 
L 503.620083 -236.615131 
L 504.133587 -237.015386 
L 504.647092 -237.417956 
L 505.160597 -237.822845 
L 505.674102 -238.230062 
L 506.187607 -238.639612 
L 506.701112 -239.051503 
L 507.214617 -239.46574 
L 507.728121 -239.882331 
L 508.241626 -240.301282 
L 508.755131 -240.722601 
L 509.268636 -241.146292 
L 509.782141 -241.572365 
L 510.295646 -242.000824 
L 510.809151 -242.431677 
L 511.322655 -242.86493 
L 511.83616 -243.30059 
L 512.349665 -243.738663 
L 512.86317 -244.179157 
L 513.376675 -244.622078 
L 513.89018 -245.067432 
L 514.403685 -245.515227 
L 514.917189 -245.965469 
L 515.430694 -246.418164 
L 515.944199 -246.87332 
L 516.457704 -247.330943 
L 516.971209 -247.791039 
L 517.484714 -248.253615 
L 517.998219 -248.718679 
L 518.511723 -249.186236 
L 519.025228 -249.656294 
L 519.538733 -250.128858 
L 520.052238 -250.603936 
L 520.565743 -251.081534 
L 521.079248 -251.56166 
L 521.592753 -252.044319 
L 522.106257 -252.529518 
L 522.619762 -253.017264 
L 523.133267 -253.507564 
L 523.646772 -254.000424 
L 524.160277 -254.495851 
L 524.673782 -254.993852 
L 525.187287 -255.494433 
L 525.700791 -255.997601 
L 526.214296 -256.503363 
L 526.727801 -257.011725 
L 527.241306 -257.522694 
L 527.754811 -258.036277 
L 528.268316 -258.55248 
L 528.781821 -259.07131 
L 529.295325 -259.592773 
L 529.80883 -260.116877 
L 530.322335 -260.643628 
L 530.83584 -261.173033 
L 530.83584 -269.538967 
L 530.83584 -269.538967 
L 530.322335 -269.009563 
L 529.80883 -268.482812 
L 529.295325 -267.958708 
L 528.781821 -267.437244 
L 528.268316 -266.918414 
L 527.754811 -266.402211 
L 527.241306 -265.888629 
L 526.727801 -265.377659 
L 526.214296 -264.869297 
L 525.700791 -264.363536 
L 525.187287 -263.860368 
L 524.673782 -263.359787 
L 524.160277 -262.861786 
L 523.646772 -262.366359 
L 523.133267 -261.873498 
L 522.619762 -261.383198 
L 522.106257 -260.895452 
L 521.592753 -260.410253 
L 521.079248 -259.927594 
L 520.565743 -259.447469 
L 520.052238 -258.96987 
L 519.538733 -258.494792 
L 519.025228 -258.022228 
L 518.511723 -257.55217 
L 517.998219 -257.084613 
L 517.484714 -256.61955 
L 516.971209 -256.156973 
L 516.457704 -255.696877 
L 515.944199 -255.239254 
L 515.430694 -254.784099 
L 514.917189 -254.331403 
L 514.403685 -253.881162 
L 513.89018 -253.433367 
L 513.376675 -252.988012 
L 512.86317 -252.545091 
L 512.349665 -252.104597 
L 511.83616 -251.666524 
L 511.322655 -251.230864 
L 510.809151 -250.797611 
L 510.295646 -250.366758 
L 509.782141 -249.938299 
L 509.268636 -249.512227 
L 508.755131 -249.088535 
L 508.241626 -248.667217 
L 507.728121 -248.248265 
L 507.214617 -247.831674 
L 506.701112 -247.417437 
L 506.187607 -247.005546 
L 505.674102 -246.595996 
L 505.160597 -246.18878 
L 504.647092 -245.78389 
L 504.133587 -245.381321 
L 503.620083 -244.981065 
L 503.106578 -244.583116 
L 502.593073 -244.187467 
L 502.079568 -243.794113 
L 501.566063 -243.403045 
L 501.052558 -243.014257 
L 500.539053 -242.627743 
L 500.025549 -242.243496 
L 499.512044 -241.861509 
L 498.998539 -241.481775 
L 498.485034 -241.104289 
L 497.971529 -240.729043 
L 497.458024 -240.35603 
L 496.944519 -239.985245 
L 496.431015 -239.61668 
L 495.91751 -239.250328 
L 495.404005 -238.886183 
L 494.8905 -238.524239 
L 494.376995 -238.164488 
L 493.86349 -237.806924 
L 493.349985 -237.45154 
L 492.836481 -237.09833 
L 492.322976 -236.747287 
L 491.809471 -236.398404 
L 491.295966 -236.051675 
L 490.782461 -235.707092 
L 490.268956 -235.36465 
L 489.755451 -235.024341 
L 489.241947 -234.68616 
L 488.728442 -234.350098 
L 488.214937 -234.016151 
L 487.701432 -233.68431 
L 487.187927 -233.354569 
L 486.674422 -233.026922 
L 486.160917 -232.701362 
L 485.647413 -232.377882 
L 485.133908 -232.056476 
L 484.620403 -231.737136 
L 484.106898 -231.419857 
L 483.593393 -231.104632 
L 483.079888 -230.791453 
L 482.566383 -230.480315 
L 482.052879 -230.17121 
L 481.539374 -229.864132 
L 481.025869 -229.559074 
L 480.512364 -229.25603 
L 479.998859 -228.954993 
L 479.485354 -228.655956 
L 478.971849 -228.358912 
L 478.458345 -228.063856 
L 477.94484 -227.77078 
L 477.431335 -227.479677 
L 476.91783 -227.190541 
L 476.404325 -226.903366 
L 475.89082 -226.618144 
L 475.377315 -226.334869 
L 474.863811 -226.053534 
L 474.350306 -225.774133 
L 473.836801 -225.496658 
L 473.323296 -225.221104 
L 472.809791 -224.947464 
L 472.296286 -224.67573 
L 471.782781 -224.405896 
L 471.269277 -224.137957 
L 470.755772 -223.871904 
L 470.242267 -223.607731 
L 469.728762 -223.345432 
L 469.215257 -223.084999 
L 468.701752 -222.826427 
L 468.188247 -222.569709 
L 467.674743 -222.314837 
L 467.161238 -222.061806 
L 466.647733 -221.810608 
L 466.134228 -221.561237 
L 465.620723 -221.313686 
L 465.107218 -221.067949 
L 464.593713 -220.824018 
L 464.080209 -220.581888 
L 463.566704 -220.341552 
L 463.053199 -220.103002 
L 462.539694 -219.866232 
L 462.026189 -219.631236 
L 461.512684 -219.398007 
L 460.999179 -219.166538 
L 460.485675 -218.936823 
L 459.97217 -218.708855 
L 459.458665 -218.482627 
L 458.94516 -218.258132 
L 458.431655 -218.035364 
L 457.91815 -217.814316 
L 457.404645 -217.594982 
L 456.891141 -217.377355 
L 456.377636 -217.161428 
L 455.864131 -216.947195 
L 455.350626 -216.734648 
L 454.837121 -216.523782 
L 454.323616 -216.314589 
L 453.810111 -216.107063 
L 453.296607 -215.901197 
L 452.783102 -215.696985 
L 452.269597 -215.494419 
L 451.756092 -215.293494 
L 451.242587 -215.094203 
L 450.729082 -214.896538 
L 450.215577 -214.700493 
L 449.702073 -214.506062 
L 449.188568 -214.313238 
L 448.675063 -214.122014 
L 448.161558 -213.932383 
L 447.648053 -213.74434 
L 447.134548 -213.557876 
L 446.621043 -213.372986 
L 446.107539 -213.189663 
L 445.594034 -213.0079 
L 445.080529 -212.827691 
L 444.567024 -212.649028 
L 444.053519 -212.471906 
L 443.540014 -212.296317 
L 443.026509 -212.122255 
L 442.513005 -211.949713 
L 441.9995 -211.778685 
L 441.485995 -211.609164 
L 440.97249 -211.441143 
L 440.458985 -211.274615 
L 439.94548 -211.109574 
L 439.431975 -210.946013 
L 438.918471 -210.783926 
L 438.404966 -210.623306 
L 437.891461 -210.464145 
L 437.377956 -210.306439 
L 436.864451 -210.150179 
L 436.350946 -209.995359 
L 435.837441 -209.841973 
L 435.323937 -209.690014 
L 434.810432 -209.539475 
L 434.296927 -209.390349 
L 433.783422 -209.24263 
L 433.269917 -209.096311 
L 432.756412 -208.951386 
L 432.242907 -208.807848 
L 431.729403 -208.66569 
L 431.215898 -208.524905 
L 430.702393 -208.385487 
L 430.188888 -208.24743 
L 429.675383 -208.110726 
L 429.161878 -207.975368 
L 428.648373 -207.841351 
L 428.134869 -207.708667 
L 427.621364 -207.577311 
L 427.107859 -207.447274 
L 426.594354 -207.318551 
L 426.080849 -207.191134 
L 425.567344 -207.065018 
L 425.053839 -206.940195 
L 424.540335 -206.816659 
L 424.02683 -206.694404 
L 423.513325 -206.573421 
L 422.99982 -206.453706 
L 422.486315 -206.335251 
L 421.97281 -206.218049 
L 421.459305 -206.102094 
L 420.9458 -205.987379 
L 420.432296 -205.873897 
L 419.918791 -205.761643 
L 419.405286 -205.650608 
L 418.891781 -205.540788 
L 418.378276 -205.432173 
L 417.864771 -205.324759 
L 417.351266 -205.218539 
L 416.837762 -205.113505 
L 416.324257 -205.009652 
L 415.810752 -204.906972 
L 415.297247 -204.805458 
L 414.783742 -204.705105 
L 414.270237 -204.605906 
L 413.756732 -204.507853 
L 413.243228 -204.41094 
L 412.729723 -204.315161 
L 412.216218 -204.220508 
L 411.702713 -204.126976 
L 411.189208 -204.034557 
L 410.675703 -203.943245 
L 410.162198 -203.853033 
L 409.648694 -203.763915 
L 409.135189 -203.675883 
L 408.621684 -203.588931 
L 408.108179 -203.503053 
L 407.594674 -203.418242 
L 407.081169 -203.334491 
L 406.567664 -203.251793 
L 406.05416 -203.170142 
L 405.540655 -203.089532 
L 405.02715 -203.009954 
L 404.513645 -202.931404 
L 404.00014 -202.853873 
L 403.486635 -202.777356 
L 402.97313 -202.701846 
L 402.459626 -202.627336 
L 401.946121 -202.55382 
L 401.432616 -202.48129 
L 400.919111 -202.40974 
L 400.405606 -202.339164 
L 399.892101 -202.269554 
L 399.378596 -202.200905 
L 398.865092 -202.133209 
L 398.351587 -202.06646 
L 397.838082 -202.000651 
L 397.324577 -201.935775 
L 396.811072 -201.871827 
L 396.297567 -201.808798 
L 395.784062 -201.746683 
L 395.270558 -201.685474 
L 394.757053 -201.625166 
L 394.243548 -201.565751 
L 393.730043 -201.507223 
L 393.216538 -201.449575 
L 392.703033 -201.3928 
L 392.189528 -201.336893 
L 391.676024 -201.281845 
L 391.162519 -201.227651 
L 390.649014 -201.174303 
L 390.135509 -201.121796 
L 389.622004 -201.070122 
L 389.108499 -201.019275 
L 388.594994 -200.969247 
L 388.08149 -200.920034 
L 387.567985 -200.871627 
L 387.05448 -200.82402 
L 386.540975 -200.777207 
L 386.02747 -200.73118 
L 385.513965 -200.685933 
L 385.00046 -200.64146 
L 384.486956 -200.597754 
L 383.973451 -200.554808 
L 383.459946 -200.512615 
L 382.946441 -200.471169 
L 382.432936 -200.430463 
L 381.919431 -200.39049 
L 381.405926 -200.351244 
L 380.892422 -200.312719 
L 380.378917 -200.274906 
L 379.865412 -200.237801 
L 379.351907 -200.201395 
L 378.838402 -200.165683 
L 378.324897 -200.130658 
L 377.811392 -200.096313 
L 377.297888 -200.062641 
L 376.784383 -200.029636 
L 376.270878 -199.997291 
L 375.757373 -199.965599 
L 375.243868 -199.934554 
L 374.730363 -199.90415 
L 374.216858 -199.874378 
L 373.703354 -199.845234 
L 373.189849 -199.816709 
L 372.676344 -199.788798 
L 372.162839 -199.761494 
L 371.649334 -199.734789 
L 371.135829 -199.708679 
L 370.622324 -199.683154 
L 370.10882 -199.65821 
L 369.595315 -199.63384 
L 369.08181 -199.610036 
L 368.568305 -199.586792 
L 368.0548 -199.564101 
L 367.541295 -199.541957 
L 367.02779 -199.520354 
L 366.514286 -199.499283 
L 366.000781 -199.47874 
L 365.487276 -199.458716 
L 364.973771 -199.439206 
L 364.460266 -199.420203 
L 363.946761 -199.4017 
L 363.433256 -199.38369 
L 362.919752 -199.366166 
L 362.406247 -199.349123 
L 361.892742 -199.332553 
L 361.379237 -199.31645 
L 360.865732 -199.300807 
L 360.352227 -199.285618 
L 359.838722 -199.270875 
L 359.325218 -199.256572 
L 358.811713 -199.242703 
L 358.298208 -199.22926 
L 357.784703 -199.216237 
L 357.271198 -199.203628 
L 356.757693 -199.191425 
L 356.244188 -199.179623 
L 355.730684 -199.168214 
L 355.217179 -199.157191 
L 354.703674 -199.146549 
L 354.190169 -199.13628 
L 353.676664 -199.126378 
L 353.163159 -199.116835 
L 352.649654 -199.107646 
L 352.13615 -199.098804 
L 351.622645 -199.090302 
L 351.10914 -199.082133 
L 350.595635 -199.074291 
L 350.08213 -199.066769 
L 349.568625 -199.059561 
L 349.05512 -199.052659 
L 348.541616 -199.046057 
L 348.028111 -199.039748 
L 347.514606 -199.033727 
L 347.001101 -199.027985 
L 346.487596 -199.022516 
L 345.974091 -199.017315 
L 345.460586 -199.012373 
L 344.947082 -199.007685 
L 344.433577 -199.003243 
L 343.920072 -198.999041 
L 343.406567 -198.995073 
L 342.893062 -198.991331 
L 342.379557 -198.98781 
L 341.866052 -198.984502 
L 341.352548 -198.9814 
L 340.839043 -198.978499 
L 340.325538 -198.975791 
L 339.812033 -198.973269 
L 339.298528 -198.970928 
L 338.785023 -198.96876 
L 338.271518 -198.966758 
L 337.758014 -198.964917 
L 337.244509 -198.963229 
L 336.731004 -198.961688 
L 336.217499 -198.960287 
L 335.703994 -198.959019 
L 335.190489 -198.957877 
L 334.676984 -198.956856 
L 334.16348 -198.955948 
L 333.649975 -198.955147 
L 333.13647 -198.954446 
L 332.622965 -198.953838 
L 332.10946 -198.953317 
L 331.595955 -198.952876 
L 331.08245 -198.952508 
L 330.568946 -198.952207 
L 330.055441 -198.951966 
L 329.541936 -198.951778 
L 329.028431 -198.951637 
L 328.514926 -198.951536 
L 328.001421 -198.951468 
L 327.487916 -198.951427 
L 326.974412 -198.951406 
L 326.460907 -198.951398 
L 325.947402 -198.951397 
z
"/>
    </defs>
    <g clip-path="url(#pf76ea87b73)">
     <use xlink:href="#mf6eb8c85bb" x="0" y="332.55" style="fill: #c78d4b; fill-opacity: 0.08"/>
    </g>
   </g>
   <g id="matplotlib.axis_3">
    <g id="xtick_7">
     <g id="line2d_13">
      <g>
       <use xlink:href="#m45da7fd049" x="325.947402" y="163.925115" style="stroke: #000000; stroke-width: 0.7"/>
      </g>
     </g>
     <g id="text_19">
      <text style="font: 7px 'Arial', 'Helvetica', 'DejaVu Sans', sans-serif; text-anchor: middle" x="325.947402" y="175.935584" transform="rotate(-0 325.947402 175.935584)">0.0</text>
     </g>
    </g>
    <g id="xtick_8">
     <g id="line2d_14">
      <g>
       <use xlink:href="#m45da7fd049" x="366.925089" y="163.925115" style="stroke: #000000; stroke-width: 0.7"/>
      </g>
     </g>
     <g id="text_20">
      <text style="font: 7px 'Arial', 'Helvetica', 'DejaVu Sans', sans-serif; text-anchor: middle" x="366.925089" y="175.935584" transform="rotate(-0 366.925089 175.935584)">0.2</text>
     </g>
    </g>
    <g id="xtick_9">
     <g id="line2d_15">
      <g>
       <use xlink:href="#m45da7fd049" x="407.902777" y="163.925115" style="stroke: #000000; stroke-width: 0.7"/>
      </g>
     </g>
     <g id="text_21">
      <text style="font: 7px 'Arial', 'Helvetica', 'DejaVu Sans', sans-serif; text-anchor: middle" x="407.902777" y="175.935584" transform="rotate(-0 407.902777 175.935584)">0.4</text>
     </g>
    </g>
    <g id="xtick_10">
     <g id="line2d_16">
      <g>
       <use xlink:href="#m45da7fd049" x="448.880465" y="163.925115" style="stroke: #000000; stroke-width: 0.7"/>
      </g>
     </g>
     <g id="text_22">
      <text style="font: 7px 'Arial', 'Helvetica', 'DejaVu Sans', sans-serif; text-anchor: middle" x="448.880465" y="175.935584" transform="rotate(-0 448.880465 175.935584)">0.6</text>
     </g>
    </g>
    <g id="xtick_11">
     <g id="line2d_17">
      <g>
       <use xlink:href="#m45da7fd049" x="489.858152" y="163.925115" style="stroke: #000000; stroke-width: 0.7"/>
      </g>
     </g>
     <g id="text_23">
      <text style="font: 7px 'Arial', 'Helvetica', 'DejaVu Sans', sans-serif; text-anchor: middle" x="489.858152" y="175.935584" transform="rotate(-0 489.858152 175.935584)">0.8</text>
     </g>
    </g>
    <g id="xtick_12">
     <g id="line2d_18">
      <g>
       <use xlink:href="#m45da7fd049" x="530.83584" y="163.925115" style="stroke: #000000; stroke-width: 0.7"/>
      </g>
     </g>
     <g id="text_24">
      <text style="font: 7px 'Arial', 'Helvetica', 'DejaVu Sans', sans-serif; text-anchor: middle" x="530.83584" y="175.935584" transform="rotate(-0 530.83584 175.935584)">1.0</text>
     </g>
    </g>
    <g id="text_25">
     <!-- Normalized event storage, $x_s$ (dry 0 $\rightarrow$ wet 1) -->
     <g transform="translate(357.411621 186.436834)">
      <text>
       <tspan style="font: 7px 'Arial'" x="0 5.055176 8.948242 11.279297 17.110352 21.003418 22.558594 24.11377 27.61377 31.506836 35.399902 37.344727 41.237793 44.737793 48.630859 52.523926 54.46875 56.413574 59.913574 61.858398 65.751465 68.08252 71.975586 75.868652 79.761719 81.706543 90.538232 92.483057 94.814111 98.707178 101.038232 104.538232 106.483057 110.376123 120.913721 122.858545 127.913721 131.806787 133.751611 135.696436 139.589502" y="-0.90625">Normalized event storage,  (dry 0  wet 1)</tspan>
       <tspan style="font: oblique 7px 'DejaVu Sans'" x="83.651367" y="-0.90625">x</tspan>
       <tspan style="font: oblique 4.9px 'DejaVu Sans'" x="87.793945" y="0.2421875">s</tspan>
       <tspan style="font: 7px 'DejaVu Sans'" x="113.684717" y="-0.90625">→</tspan>
      </text>
     </g>
    </g>
   </g>
   <g id="matplotlib.axis_4">
    <g id="ytick_4">
     <g id="line2d_19">
      <g>
       <use xlink:href="#m0a321fda6d" x="325.947402" y="163.925115" style="stroke: #000000; stroke-width: 0.7"/>
      </g>
     </g>
     <g id="text_26">
      <text style="font: 7px 'Arial', 'Helvetica', 'DejaVu Sans', sans-serif; text-anchor: end" x="318.947402" y="166.430349" transform="rotate(-0 318.947402 166.430349)">0.0</text>
     </g>
    </g>
    <g id="ytick_5">
     <g id="line2d_20">
      <g>
       <use xlink:href="#m0a321fda6d" x="325.947402" y="137.78157" style="stroke: #000000; stroke-width: 0.7"/>
      </g>
     </g>
     <g id="text_27">
      <text style="font: 7px 'Arial', 'Helvetica', 'DejaVu Sans', sans-serif; text-anchor: end" x="318.947402" y="140.286805" transform="rotate(-0 318.947402 140.286805)">0.5</text>
     </g>
    </g>
    <g id="ytick_6">
     <g id="line2d_21">
      <g>
       <use xlink:href="#m0a321fda6d" x="325.947402" y="111.638026" style="stroke: #000000; stroke-width: 0.7"/>
      </g>
     </g>
     <g id="text_28">
      <text style="font: 7px 'Arial', 'Helvetica', 'DejaVu Sans', sans-serif; text-anchor: end" x="318.947402" y="114.14326" transform="rotate(-0 318.947402 114.14326)">1.0</text>
     </g>
    </g>
    <g id="ytick_7">
     <g id="line2d_22">
      <g>
       <use xlink:href="#m0a321fda6d" x="325.947402" y="85.494481" style="stroke: #000000; stroke-width: 0.7"/>
      </g>
     </g>
     <g id="text_29">
      <text style="font: 7px 'Arial', 'Helvetica', 'DejaVu Sans', sans-serif; text-anchor: end" x="318.947402" y="87.999716" transform="rotate(-0 318.947402 87.999716)">1.5</text>
     </g>
    </g>
    <g id="text_30">
     <!-- Loss rate, $L=-dS/dt$ -->
     <g transform="translate(303.826152 151.679558) rotate(-90)">
      <text>
       <tspan style="font: 7px 'Arial'" x="0 3.893066 7.786133 11.286133 14.786133 16.730957 19.062012 22.955078 24.899902 28.792969 30.737793" y="-0.6875">Loss rate, </tspan>
       <tspan style="font: oblique 7px 'DejaVu Sans'" x="32.682617 53.768066 58.211426 65.013184 69.456543" y="-0.6875">LdSdt</tspan>
       <tspan style="font: 7px 'DejaVu Sans'" x="37.946289 46.539062 62.654785" y="-0.6875">=−/</tspan>
      </text>
     </g>
    </g>
   </g>
   <g id="line2d_23">
    <path d="M 325.947402 157.650664 
L 330.055441 157.479195 
L 336.731004 156.95576 
L 344.947082 156.070873 
L 354.190169 154.843723 
L 364.460266 153.249717 
L 375.757373 151.260289 
L 387.567985 148.950646 
L 399.892101 146.317975 
L 413.243228 143.234215 
L 427.107859 139.798807 
L 441.485995 136.004945 
L 456.377636 131.844928 
L 471.782781 127.310428 
L 487.701432 122.392664 
L 504.133587 117.082523 
L 521.079248 111.370639 
L 530.83584 107.97793 
L 530.83584 107.97793 
" clip-path="url(#pf76ea87b73)" style="fill: none; stroke: #6fa38a; stroke-width: 2.2; stroke-linecap: square"/>
   </g>
   <g id="line2d_24">
    <path d="M 325.947402 123.141185 
L 530.83584 123.141185 
L 530.83584 123.141185 
" clip-path="url(#pf76ea87b73)" style="fill: none; stroke: #355c7d; stroke-width: 1.8; stroke-linecap: square"/>
   </g>
   <g id="line2d_25">
    <path d="M 325.947402 137.78157 
L 349.568625 137.673406 
L 362.406247 137.383844 
L 373.189849 136.916258 
L 382.432936 136.302504 
L 391.162519 135.505317 
L 399.378596 134.532062 
L 407.081169 133.398476 
L 414.270237 132.127062 
L 421.459305 130.630873 
L 428.134869 129.0243 
L 434.810432 127.193493 
L 441.485995 125.123803 
L 447.648053 122.988627 
L 453.810111 120.625904 
L 459.97217 118.024112 
L 466.134228 115.171731 
L 472.296286 112.057237 
L 477.94484 108.962187 
L 483.593393 105.628336 
L 489.241947 102.046807 
L 494.8905 98.208728 
L 500.539053 94.105224 
L 506.187607 89.727421 
L 511.83616 85.066443 
L 517.484714 80.113417 
L 523.133267 74.859469 
L 528.781821 69.295723 
L 530.83584 67.194 
L 530.83584 67.194 
" clip-path="url(#pf76ea87b73)" style="fill: none; stroke: #c78d4b; stroke-width: 1.8; stroke-linecap: square"/>
   </g>
   <g id="patch_12">
    <path d="M 325.947402 163.925115 
L 325.947402 67.194 
" style="fill: none; stroke: #000000; stroke-width: 0.75; stroke-linejoin: miter; stroke-linecap: square"/>
   </g>
   <g id="patch_13">
    <path d="M 325.947402 163.925115 
L 530.83584 163.925115 
" style="fill: none; stroke: #000000; stroke-width: 0.75; stroke-linejoin: miter; stroke-linecap: square"/>
   </g>
   <g id="text_31">
    <text style="fill: #6fa38a; font: 6.8px 'Arial', 'Helvetica', 'DejaVu Sans', sans-serif; text-anchor: middle" x="368.973974" y="73.09503" transform="rotate(-0 368.973974 73.09503)">storage-limited</text>
   </g>
   <g id="text_32">
    <text style="fill: #355c7d; font: 6.8px 'Arial', 'Helvetica', 'DejaVu Sans', sans-serif; text-anchor: middle" x="446.83158" y="73.09503" transform="rotate(-0 446.83158 73.09503)">storage-invariant</text>
   </g>
   <g id="text_33">
    <text style="fill: #c78d4b; font: 6.8px 'Arial', 'Helvetica', 'DejaVu Sans', sans-serif; text-anchor: middle" x="506.249227" y="73.134873" transform="rotate(-0 506.249227 73.134873)">wet transient</text>
   </g>
   <g id="text_34">
    <text style="fill: #6fa38a; font: 6.8px 'Arial', 'Helvetica', 'DejaVu Sans', sans-serif; text-anchor: start" x="535.958051" y="109.73743" transform="rotate(-0 535.958051 109.73743)">Stage-II</text>
   </g>
   <g id="text_35">
    <text style="fill: #355c7d; font: 6.8px 'Arial', 'Helvetica', 'DejaVu Sans', sans-serif; text-anchor: start" x="535.958051" y="124.900685" transform="rotate(-0 535.958051 124.900685)">Stage-I</text>
   </g>
   <g id="text_36">
    <text style="fill: #c78d4b; font: 6.8px 'Arial', 'Helvetica', 'DejaVu Sans', sans-serif; text-anchor: start" x="535.958051" y="69.957804" transform="rotate(-0 535.958051 69.957804)">early</text>
   </g>
   <g id="patch_14">
    <path d="M 460.571564 151.35007 
Q 475.818544 151.35007 491.959952 151.35007 
" style="fill: none; stroke: #6f7378; stroke-width: 0.8; stroke-linecap: round"/>
    <path d="M 463.171564 152.65007 
L 460.571564 151.35007 
L 463.171564 150.05007 
" style="fill: none; stroke: #6f7378; stroke-width: 0.8; stroke-linecap: round"/>
   </g>
   <g id="text_37">
    <text style="fill: #6f7378; font: 6.5px 'Arial', 'Helvetica', 'DejaVu Sans', sans-serif; text-anchor: middle" x="440.684927" y="153.030422" transform="rotate(-0 440.684927 153.030422)">event time</text>
   </g>
   <g id="text_38">
    <text style="fill: #303030; font: 700 9px 'Arial', 'Helvetica', 'DejaVu Sans', sans-serif; text-anchor: start" x="309.556327" y="66.864853" transform="rotate(-0 309.556327 66.864853)">b</text>
   </g>
   <g id="text_39">
    <text style="font: 8px 'Arial', 'Helvetica', 'DejaVu Sans', sans-serif; text-anchor: start" x="325.947402" y="59.194" transform="rotate(-0 325.947402 59.194)">Diagnostic loss rate versus storage</text>
   </g>
  </g>
  <g id="axes_3">
   <g id="patch_15">
    <path d="M 53.26056 259.050494 
L 523.56312 259.050494 
L 523.56312 249.706268 
L 53.26056 249.706268 
z
" clip-path="url(#p0c65f0cdd0)" style="fill: #ffffff; stroke: #e1e4e8; stroke-width: 0.6; stroke-linejoin: miter"/>
   </g>
   <g id="patch_16">
    <path d="M 53.26056 270.174572 
L 523.56312 270.174572 
L 523.56312 260.830346 
L 53.26056 260.830346 
z
" clip-path="url(#p0c65f0cdd0)" style="fill: #ffffff; stroke: #e1e4e8; stroke-width: 0.6; stroke-linejoin: miter"/>
   </g>
   <g id="patch_17">
    <path d="M 53.26056 281.29865 
L 523.56312 281.29865 
L 523.56312 271.954424 
L 53.26056 271.954424 
z
" clip-path="url(#p0c65f0cdd0)" style="fill: #ffffff; stroke: #e1e4e8; stroke-width: 0.6; stroke-linejoin: miter"/>
   </g>
   <g id="patch_18">
    <path d="M 53.26056 292.422728 
L 523.56312 292.422728 
L 523.56312 283.078503 
L 53.26056 283.078503 
z
" clip-path="url(#p0c65f0cdd0)" style="fill: #ffffff; stroke: #e1e4e8; stroke-width: 0.6; stroke-linejoin: miter"/>
   </g>
   <g id="patch_19">
    <path d="M 53.26056 303.546807 
L 523.56312 303.546807 
L 523.56312 294.202581 
L 53.26056 294.202581 
z
" clip-path="url(#p0c65f0cdd0)" style="fill: #ffffff; stroke: #e1e4e8; stroke-width: 0.6; stroke-linejoin: miter"/>
   </g>
   <g id="patch_20">
    <path d="M 53.26056 314.670885 
L 523.56312 314.670885 
L 523.56312 305.326659 
L 53.26056 305.326659 
z
" clip-path="url(#p0c65f0cdd0)" style="fill: #ffffff; stroke: #e1e4e8; stroke-width: 0.6; stroke-linejoin: miter"/>
   </g>
   <g id="text_40">
    <text style="fill: #6f7378; font: 7.2px 'Arial', 'Helvetica', 'DejaVu Sans', sans-serif; text-anchor: start" x="55.6848" y="244.452108" transform="rotate(-0 55.6848 244.452108)">Quantity or class</text>
   </g>
   <g id="text_41">
    <text style="fill: #6f7378; font: 7.2px 'Arial', 'Helvetica', 'DejaVu Sans', sans-serif; text-anchor: start" x="191.44224" y="244.494295" transform="rotate(-0 191.44224 244.494295)">Operational definition</text>
   </g>
   <g id="text_42">
    <text style="fill: #303030; font: 700 7.2px 'Arial', 'Helvetica', 'DejaVu Sans', sans-serif; text-anchor: start" x="62.95752" y="255.128973" transform="rotate(-0 62.95752 255.128973)">Storage coordinate</text>
   </g>
   <g id="text_43">
    <!-- $x_s(t)=\{S(t)-S_{end}\}/\{S_{start}-S_{end}\}$ -->
    <g style="fill: #303030" transform="translate(191.44224 255.218973)">
     <text>
      <tspan style="font: oblique 7.2px 'DejaVu Sans'" x="0 9.875784 28.893881 36.260367 50.705557 76.510007 101.810489" y="-0.546875">xtStSSS</tspan>
      <tspan style="font: oblique 5.04px 'DejaVu Sans'" x="4.25354 55.267935 58.363333 61.552084 81.072385 83.693646 85.666348 88.749463 90.817975 106.372867 109.468265 112.657016" y="0.6343750000000004">sendstartend</tspan>
      <tspan style="font: 7.2px 'DejaVu Sans'" x="7.071677 12.69393 16.898337 24.320975 33.456259 39.078513 43.282919 64.942624 69.51553 71.9371 94.387851 116.047556" y="-0.546875">()={()−}/{−}</tspan>
     </text>
    </g>
   </g>
   <g id="text_44">
    <text style="fill: #303030; font: 700 7.2px 'Arial', 'Helvetica', 'DejaVu Sans', sans-serif; text-anchor: start" x="62.95752" y="266.256426" transform="rotate(-0 62.95752 266.256426)">Loss rate</text>
   </g>
   <g id="text_45">
    <!-- $L_i=-(S_{i+1}-S_i)/\Delta t_i$ -->
    <g style="fill: #303030" transform="translate(191.44224 266.307051)">
     <text>
      <tspan style="font: oblique 7.2px 'DejaVu Sans'" x="0 26.049063 50.406186 66.705798" y="-0.546875">LSSt</tspan>
      <tspan style="font: oblique 5.04px 'DejaVu Sans'" x="4.004364 30.611441 54.968564 69.523944" y="0.6343750000000004">iiii</tspan>
      <tspan style="font: 7.2px 'DejaVu Sans'" x="6.99938 15.822318 23.244955 42.983548 56.563281 59.367389 61.788959" y="-0.546875">=−(−)/Δ</tspan>
      <tspan style="font: 5.04px 'DejaVu Sans'" x="32.989493 38.185339" y="0.6343750000000004">+1</tspan>
     </text>
    </g>
   </g>
   <g id="text_46">
    <text style="fill: #6fa38a; font: 700 7.2px 'Arial', 'Helvetica', 'DejaVu Sans', sans-serif; text-anchor: start" x="62.95752" y="277.377129" transform="rotate(-0 62.95752 277.377129)">Stage-II-like</text>
   </g>
   <g id="text_47">
    <!-- $R^2_{\mathrm{trim3}}\geq0.70$ and $r(L,x)_{\mathrm{post3}}\geq0.20$ -->
    <g style="fill: #303030" transform="translate(191.44224 277.674129)">
     <text>
      <tspan style="font: oblique 7.2px 'DejaVu Sans'" x="0 59.044287 64.803412 72.492773" y="-0.5140625000000014">RrLx</tspan>
      <tspan style="font: 5.04px 'DejaVu Sans'" x="4.994049 5.497174 6.966751 9.035263 10.433105 15.334152 79.619327 82.812992 85.891193 88.512455 90.485157" y="1.4546874999999986 -3.2703125 1.4546874999999986 1.4546874999999986 1.4546874999999986 1.4546874999999986 0.6671874999999989 0.6671874999999989 0.6671874999999989 0.6671874999999989 0.6671874999999989">t2rim3post3</tspan>
      <tspan style="font: 7.2px 'DejaVu Sans'" x="20.132361 27.554999 32.127905 33.912604 38.48551 61.999304 68.807776 76.746313 95.283365 102.706003 107.27891 109.188608 113.761515" y="-0.5140625000000014">≥0.70(,)≥0.20</tspan>
      <tspan style="font: 7.2px 'Arial'" x="43.058417 45.055334 49.052679 53.050024 57.047369" y="-0.5140625000000014"> and </tspan>
     </text>
    </g>
   </g>
   <g id="text_48">
    <text style="fill: #355c7d; font: 700 7.2px 'Arial', 'Helvetica', 'DejaVu Sans', sans-serif; text-anchor: start" x="62.95752" y="288.501208" transform="rotate(-0 62.95752 288.501208)">Stage-I-like</text>
   </g>
   <g id="text_49">
    <!-- $|r(L,x)_{\mathrm{post3}}|&lt;0.20$ and $CV(L)_{\mathrm{post3}}&lt;0.60$ -->
    <g style="fill: #303030" transform="translate(191.44224 288.294208)">
     <text>
      <tspan style="font: 7.2px 'DejaVu Sans'" x="0 5.376587 12.185059 20.123596 37.260349 41.082218 48.504856 53.077762 54.987461 59.560367 90.0546 96.863071 115.400123 122.822761 127.395668 129.680366 134.253273" y="-0.5">|(,)|&lt;0.20()&lt;0.60</tspan>
      <tspan style="font: oblique 7.2px 'DejaVu Sans'" x="2.42157 8.180695 15.870056 80.119144 85.13776 92.858707" y="-0.5">rLxCVL</tspan>
      <tspan style="font: 5.04px 'DejaVu Sans'" x="22.99661 26.190275 29.268476 31.889738 33.86244 99.736085 102.92975 106.007951 108.629213 110.601915" y="0.6812500000000004">post3post3</tspan>
      <tspan style="font: 7.2px 'Arial'" x="64.133274 66.130192 70.127537 74.124882 78.122227" y="-0.5"> and </tspan>
     </text>
    </g>
   </g>
   <g id="text_50">
    <text style="fill: #c78d4b; font: 700 7.2px 'Arial', 'Helvetica', 'DejaVu Sans', sans-serif; text-anchor: start" x="62.95752" y="299.581411" transform="rotate(-0 62.95752 299.581411)">Early transient-heavy</text>
   </g>
   <g id="text_51">
    <!-- $E_3\geq0.40$ -->
    <g style="fill: #303030" transform="translate(191.44224 299.679286)">
     <text>
      <tspan style="font: oblique 7.2px 'DejaVu Sans'" x="0" y="-0.671875">E</tspan>
      <tspan style="font: 5.04px 'DejaVu Sans'" x="4.541321" y="0.5093750000000004">3</tspan>
      <tspan style="font: 7.2px 'DejaVu Sans'" x="9.339529 16.762167 21.335074 23.619772 28.192679" y="-0.671875">≥0.40</tspan>
     </text>
    </g>
   </g>
   <g id="text_52">
    <text style="fill: #6f7378; font: 700 7.2px 'Arial', 'Helvetica', 'DejaVu Sans', sans-serif; text-anchor: start" x="62.95752" y="310.752739" transform="rotate(-0 62.95752 310.752739)">Mixed/uncertain</text>
   </g>
   <g id="text_53">
    <text style="fill: #303030; font: 7.2px 'Arial', 'Helvetica', 'DejaVu Sans', sans-serif; text-anchor: start" x="191.44224" y="310.705489" transform="rotate(-0 191.44224 310.705489)">events not meeting the above diagnostic rules</text>
   </g>
   <g id="text_54">
    <text style="fill: #6f7378; font: 7px 'Arial', 'Helvetica', 'DejaVu Sans', sans-serif; text-anchor: start" x="55.6848" y="320.761977" transform="rotate(-0 55.6848 320.761977)">Regime labels are diagnostic proxies for event filtering, not direct flux partitioning.</text>
   </g>
   <g id="text_55">
    <text style="fill: #303030; font: 700 9px 'Arial', 'Helvetica', 'DejaVu Sans', sans-serif; text-anchor: start" x="7.2" y="236.569922" transform="rotate(-0 7.2 236.569922)">c</text>
   </g>
   <g id="text_56">
    <text style="font: 8px 'Arial', 'Helvetica', 'DejaVu Sans', sans-serif; text-anchor: start" x="45.98784" y="230.357374" transform="rotate(-0 45.98784 230.357374)">Event-level diagnostic rules</text>
   </g>
  </g>
  <g id="text_57">
   <text style="fill: #303030; font: 700 9.5px 'Arial', 'Helvetica', 'DejaVu Sans', sans-serif; text-anchor: start" x="45.98784" y="14.115703" transform="rotate(-0 45.98784 14.115703)">Regime diagnosis and segmentation logic for localized segmented CSR</text>
  </g>
  <g id="text_58">
   <text style="fill: #6f7378; font: 7.2px 'Arial', 'Helvetica', 'DejaVu Sans', sans-serif; text-anchor: start" x="45.98784" y="30.621375" transform="rotate(-0 45.98784 30.621375)">Diagnostic labels are used for event filtering and CSR segmentation.</text>
  </g>
 </g>
 <defs>
  <clipPath id="pd90912776a">
   <rect x="45.98784" y="67.194" width="213.083976" height="96.731115"/>
  </clipPath>
  <clipPath id="pf76ea87b73">
   <rect x="325.947402" y="67.194" width="204.888438" height="96.731115"/>
  </clipPath>
  <clipPath id="p0c65f0cdd0">
   <rect x="45.98784" y="236.357374" width="484.848" height="88.992626"/>
  </clipPath>
 </defs>
</svg>
